<svg width="151" height="85" viewBox="0 0 151 85" fill="none" xmlns="http://www.w3.org/2000/svg">
        <path d="M10.9773 56.9114V71.8432H2.64205V36.9341H10.7045V50.4682H10.9943C11.5852 48.8546 12.5511 47.5932 13.892 46.6841C15.2443 45.775 16.8977 45.3205 18.8523 45.3205C20.6932 45.3205 22.2955 45.7296 23.6591 46.5477C25.0227 47.3546 26.0795 48.4966 26.8295 49.9739C27.5909 51.4512 27.9659 53.1784 27.9545 55.1557V71.8432H19.6193V56.7921C19.6307 55.3375 19.267 54.2012 18.5284 53.383C17.7898 52.5648 16.75 52.1557 15.4091 52.1557C14.5341 52.1557 13.7614 52.3489 13.0909 52.7352C12.4318 53.1102 11.9148 53.65 11.5398 54.3546C11.1761 55.0591 10.9886 55.9114 10.9773 56.9114ZM40.5384 72.2864C38.8679 72.2864 37.3849 72.008 36.0895 71.4512C34.8054 70.883 33.7884 70.0307 33.0384 68.8943C32.2997 67.7466 31.9304 66.3091 31.9304 64.5818C31.9304 63.1273 32.1861 61.9 32.6974 60.9C33.2088 59.9 33.9134 59.0875 34.8111 58.4625C35.7088 57.8375 36.7429 57.3659 37.9134 57.0477C39.0838 56.7182 40.3338 56.4966 41.6634 56.383C43.152 56.2466 44.3509 56.1046 45.2599 55.9568C46.169 55.7977 46.8281 55.5762 47.2372 55.2921C47.6577 54.9966 47.8679 54.5818 47.8679 54.0477V53.9625C47.8679 53.0875 47.5668 52.4114 46.9645 51.9341C46.3622 51.4568 45.5497 51.2182 44.527 51.2182C43.4247 51.2182 42.5384 51.4568 41.8679 51.9341C41.1974 52.4114 40.7713 53.0705 40.5895 53.9114L32.902 53.6387C33.1293 52.0477 33.7145 50.6273 34.6577 49.3773C35.6122 48.1159 36.919 47.1273 38.5781 46.4114C40.2486 45.6841 42.2543 45.3205 44.5952 45.3205C46.2656 45.3205 47.8054 45.5193 49.2145 45.9171C50.6236 46.3034 51.8509 46.8716 52.8963 47.6216C53.9418 48.3602 54.7486 49.2693 55.3168 50.3489C55.8963 51.4284 56.1861 52.6614 56.1861 54.0477V71.8432H48.3452V68.1955H48.1406C47.6747 69.0818 47.0781 69.8318 46.3509 70.4455C45.6349 71.0591 44.7884 71.5193 43.8111 71.8262C42.8452 72.133 41.7543 72.2864 40.5384 72.2864ZM43.1122 66.8318C44.0099 66.8318 44.8168 66.65 45.5327 66.2864C46.2599 65.9227 46.8395 65.4227 47.2713 64.7864C47.7031 64.1387 47.919 63.3887 47.919 62.5364V60.0477C47.6804 60.1727 47.3906 60.2864 47.0497 60.3887C46.7202 60.4909 46.3565 60.5875 45.9588 60.6784C45.5611 60.7693 45.152 60.8489 44.7315 60.9171C44.3111 60.9852 43.9077 61.0477 43.5213 61.1046C42.7372 61.2296 42.0668 61.4227 41.5099 61.6841C40.9645 61.9455 40.544 62.2864 40.2486 62.7068C39.9645 63.1159 39.8224 63.6046 39.8224 64.1727C39.8224 65.0364 40.1293 65.6955 40.7429 66.15C41.3679 66.6046 42.1577 66.8318 43.1122 66.8318ZM61.2827 71.8432V36.9341H69.6179V50.1443H69.7884C70.1293 49.3489 70.6122 48.5818 71.2372 47.8432C71.8736 47.1046 72.6804 46.5023 73.6577 46.0364C74.6463 45.5591 75.8281 45.3205 77.2031 45.3205C79.0213 45.3205 80.7202 45.7977 82.2997 46.7523C83.8906 47.7068 85.1747 49.1784 86.152 51.1671C87.1293 53.1557 87.6179 55.6898 87.6179 58.7693C87.6179 61.7352 87.1463 64.2182 86.2031 66.2182C85.2713 68.2182 84.0099 69.7182 82.419 70.7182C80.8395 71.7182 79.0838 72.2182 77.152 72.2182C75.8338 72.2182 74.6918 72.0023 73.7259 71.5705C72.7599 71.1387 71.9474 70.5705 71.2884 69.8659C70.6406 69.1614 70.1406 68.4057 69.7884 67.5989H69.5327V71.8432H61.2827ZM69.4474 58.7523C69.4474 60.1614 69.6349 61.3887 70.0099 62.4341C70.3963 63.4796 70.9474 64.2921 71.6634 64.8716C72.3906 65.4398 73.2599 65.7239 74.2713 65.7239C75.294 65.7239 76.1634 65.4398 76.8793 64.8716C77.5952 64.2921 78.1349 63.4796 78.4986 62.4341C78.8736 61.3887 79.0611 60.1614 79.0611 58.7523C79.0611 57.3432 78.8736 56.1216 78.4986 55.0875C78.1349 54.0534 77.5952 53.2523 76.8793 52.6841C76.1747 52.1159 75.3054 51.8318 74.2713 51.8318C73.2486 51.8318 72.3793 52.1102 71.6634 52.6671C70.9474 53.2239 70.3963 54.0193 70.0099 55.0534C69.6349 56.0875 69.4474 57.3205 69.4474 58.7523ZM91.9858 71.8432V45.6614H100.321V71.8432H91.9858ZM96.1619 42.6102C94.9915 42.6102 93.9858 42.2239 93.1449 41.4512C92.304 40.6671 91.8835 39.7239 91.8835 38.6216C91.8835 37.5307 92.304 36.5989 93.1449 35.8262C93.9858 35.0421 94.9915 34.65 96.1619 34.65C97.3438 34.65 98.3494 35.0421 99.179 35.8262C100.02 36.5989 100.44 37.5307 100.44 38.6216C100.44 39.7239 100.02 40.6671 99.179 41.4512C98.3494 42.2239 97.3438 42.6102 96.1619 42.6102ZM120.405 45.6614V51.7977H103.888V45.6614H120.405ZM107.348 39.3887H115.683V63.6102C115.683 64.1216 115.763 64.5364 115.922 64.8546C116.092 65.1614 116.337 65.383 116.655 65.5193C116.973 65.6443 117.354 65.7068 117.797 65.7068C118.115 65.7068 118.45 65.6784 118.803 65.6216C119.166 65.5534 119.439 65.4966 119.621 65.4512L120.882 71.4682C120.484 71.5818 119.922 71.7239 119.195 71.8943C118.479 72.0648 117.621 72.1727 116.621 72.2182C114.666 72.3091 112.99 72.0818 111.592 71.5364C110.206 70.9796 109.143 70.1159 108.405 68.9455C107.678 67.775 107.325 66.3034 107.348 64.5307V39.3887ZM147.188 53.6557L139.534 53.8602C139.455 53.3148 139.239 52.8318 138.886 52.4114C138.534 51.9796 138.074 51.6443 137.506 51.4057C136.949 51.1557 136.301 51.0307 135.562 51.0307C134.597 51.0307 133.773 51.2239 133.091 51.6102C132.42 51.9966 132.091 52.5193 132.102 53.1784C132.091 53.6898 132.295 54.133 132.716 54.508C133.148 54.883 133.915 55.1841 135.017 55.4114L140.062 56.3659C142.676 56.8659 144.619 57.6955 145.892 58.8546C147.176 60.0137 147.824 61.5477 147.835 63.4568C147.824 65.2523 147.29 66.8148 146.233 68.1443C145.188 69.4739 143.756 70.508 141.938 71.2466C140.119 71.9739 138.04 72.3375 135.699 72.3375C131.96 72.3375 129.011 71.5705 126.852 70.0364C124.705 68.4909 123.477 66.4227 123.17 63.8318L131.403 63.6273C131.585 64.5818 132.057 65.3091 132.818 65.8091C133.58 66.3091 134.551 66.5591 135.733 66.5591C136.801 66.5591 137.67 66.3602 138.341 65.9625C139.011 65.5648 139.352 65.0364 139.364 64.3773C139.352 63.7864 139.091 63.3148 138.58 62.9625C138.068 62.5989 137.267 62.3148 136.176 62.1102L131.608 61.2409C128.983 60.7637 127.028 59.883 125.744 58.5989C124.46 57.3034 123.824 55.6557 123.835 53.6557C123.824 51.9057 124.29 50.4114 125.233 49.1727C126.176 47.9227 127.517 46.9682 129.256 46.3091C130.994 45.65 133.045 45.3205 135.409 45.3205C138.955 45.3205 141.75 46.0648 143.795 47.5534C145.841 49.0307 146.972 51.0648 147.188 53.6557Z" fill="white"/>
        <rect x="0.5" y="1.3432" width="15" height="15" rx="3.5" fill="#18181B" stroke="#27272A"/>
        <rect x="20.5" y="1.3432" width="15" height="15" rx="3.5" fill="#4C1D95" stroke="#6D28D9"/>
        <rect x="40.5" y="1.3432" width="15" height="15" rx="3.5" fill="#5B21B6" stroke="#7C3AED"/>
        <rect x="60.5" y="1.3432" width="15" height="15" rx="3.5" fill="#6D28D9" stroke="#8B5CF6"/>
        <rect x="80.5" y="1.3432" width="15" height="15" rx="3.5" fill="#7C3AED" stroke="#A78BFA"/>
        <rect x="100.5" y="1.3432" width="15" height="15" rx="3.5" fill="#8B5CF6" stroke="#C4B5FD"/>
        </svg>